<svg width="76" height="55" viewBox="0 0 76 55" fill="none" xmlns="http://www.w3.org/2000/svg">
<path fill-rule="evenodd" clip-rule="evenodd" d="M60.8 40.9444L64.752 51.9444H70.224L57.456 12.2222H49.856L36.48 51.9444H41.952L45.6 40.9444H60.8ZM53.2 16.8056L59.584 35.75H46.816L53.2 16.8056V16.8056ZM24.624 9.16667H27.36L24.32 3.05556H18.24L19.76 6.11111C20.672 7.94445 22.496 9.16667 24.624 9.16667ZM36.176 16.8056H42.256L43.776 12.2222H6.08V16.8056H11.856C13.68 22.3056 16.416 26.8889 20.368 31.1667C16.112 34.5278 10.944 36.3611 5.776 38.1944L7.296 42.7778C13.376 40.9444 18.848 38.5 24.016 34.5278C26.752 36.6667 30.4 38.8056 34.656 40.0278L36.176 35.4444C32.832 34.5278 30.096 33 27.664 31.1667C33.44 25.3611 35.264 19.5556 35.568 18.9444L36.176 16.8056V16.8056ZM24.016 28.1111C20.976 25.0556 18.24 21.0833 17.024 16.8056H31.312C29.792 21.0833 27.056 24.75 24.016 28.1111C24.016 28.1111 19.152 22.9167 24.016 28.1111Z" fill="white"/>
</svg>
